<svg width="311" height="294" viewBox="0 0 311 294" fill="none" xmlns="http://www.w3.org/2000/svg">
<g clip-path="url(#clip0)">
<path d="M9.21155 174.64C9.21155 174.64 8.94681 173.862 8.51855 172.413" stroke="#69F0AE" stroke-width="9" stroke-miterlimit="10"/>
<path d="M7.26478 167.897C-2.19969 131.456 -31.7066 -36.4916 264.086 68.354" stroke="#69F0AE" stroke-width="9" stroke-miterlimit="10" stroke-dasharray="12.04 12.04"/>
<path d="M266.302 69.1328L268.501 69.9115" stroke="#69F0AE" stroke-width="9" stroke-miterlimit="10"/>
<path d="M232.271 198.658C232.273 190.783 229.336 183.192 224.036 177.368C218.736 171.545 211.454 167.909 203.614 167.172C195.774 166.434 187.942 168.649 181.649 173.382C175.356 178.116 171.056 185.027 169.59 192.763L72.4182 190.128L73.485 206.822C73.485 206.822 59.6289 238.793 132.452 247.312V279.626H216.639V225.899C221.394 223.115 225.337 219.136 228.079 214.358C230.821 209.579 232.266 204.167 232.271 198.658Z" fill="url(#paint0_linear)"/>
<path d="M76.8215 207.523C76.8215 207.523 63.5533 238.139 133.293 246.308V277.267H213.918V195.275L75.7859 191.533L76.8215 207.523Z" fill="#F6B9AD"/>
<path d="M117.116 79.7574C115.014 83.0748 111.685 85.4254 107.855 86.2957C104.025 87.1659 100.006 86.4852 96.677 84.4021L53.388 55.8761C50.0706 53.7738 47.7201 50.4441 46.8498 46.6143C45.9795 42.7845 46.6603 38.766 48.7434 35.4365C50.8455 32.1234 54.1723 29.7758 57.9983 28.9058C61.8243 28.0357 65.8392 28.7137 69.1673 30.7918L112.456 59.3178C115.776 61.4176 118.13 64.7462 119.003 68.5762C119.876 72.4061 119.198 76.4261 117.116 79.7574Z" fill="url(#paint1_linear)"/>
<path d="M114.718 78.1963C112.764 81.2799 109.669 83.4648 106.109 84.2738C102.549 85.0828 98.814 84.4501 95.7192 82.5139L55.4669 55.9969C52.3834 54.0427 50.1985 50.9477 49.3895 47.3878C48.5805 43.828 49.2132 40.0926 51.1493 36.9977C53.1035 33.9142 56.1985 31.7292 59.7583 30.9202C63.3182 30.1113 67.0535 30.7439 70.1483 32.6801L110.393 59.201C113.477 61.1539 115.662 64.2476 116.473 67.8066C117.283 71.3657 116.652 75.1008 114.718 78.1963Z" fill="#F6B9AD"/>
<path d="M198.61 229.979C215.332 229.979 228.888 216.423 228.888 199.701C228.888 182.979 215.332 169.423 198.61 169.423C181.888 169.423 168.332 182.979 168.332 199.701C168.332 216.423 181.888 229.979 198.61 229.979Z" fill="#F6B9AD"/>
<path d="M193.159 0H77.1718C74.5378 0 72.4026 2.13527 72.4026 4.76925V221.803C72.4026 224.437 74.5378 226.573 77.1718 226.573H193.159C195.793 226.573 197.929 224.437 197.929 221.803V4.76925C197.929 2.13527 195.793 0 193.159 0Z" fill="url(#paint2_linear)"/>
<path d="M190.921 3.06396H79.4105C76.4776 3.06396 74.1001 5.44152 74.1001 8.37438V218.206C74.1001 221.139 76.4776 223.516 79.4105 223.516H190.921C193.854 223.516 196.231 221.139 196.231 218.206V8.37438C196.231 5.44152 193.854 3.06396 190.921 3.06396Z" fill="white"/>
<path d="M165.848 8.58838C165.495 10.9263 164.317 13.0605 162.526 14.6051C160.736 16.1497 158.452 17.0026 156.088 17.0095H113.908C111.545 17.0017 109.262 16.1484 107.472 14.6039C105.683 13.0594 104.505 10.9256 104.152 8.58838H81.8048C81.1956 8.58787 80.5922 8.70743 80.0292 8.94022C79.4661 9.17302 78.9545 9.51449 78.5235 9.94512C78.0926 10.3757 77.7507 10.8871 77.5174 11.4499C77.2841 12.0127 77.1641 12.616 77.1641 13.2253V213.339C77.1636 213.948 77.2831 214.552 77.5159 215.115C77.7487 215.678 78.0902 216.189 78.5208 216.62C78.9514 217.051 79.4627 217.393 80.0256 217.627C80.5884 217.86 81.1917 217.98 81.8009 217.98H188.53C189.14 217.98 189.743 217.861 190.306 217.628C190.869 217.395 191.381 217.054 191.812 216.623C192.243 216.193 192.584 215.681 192.818 215.118C193.051 214.556 193.171 213.952 193.171 213.343V13.2292C193.172 12.6199 193.052 12.0165 192.819 11.4535C192.586 10.8905 192.245 10.3789 191.814 9.94787C191.384 9.51688 190.872 9.17498 190.309 8.94172C189.747 8.70845 189.143 8.58838 188.534 8.58838H165.848Z" fill="#2651EB"/>
<path d="M148.169 11.228H122.509C122.079 11.228 121.73 11.5766 121.73 12.0067V12.1507C121.73 12.5808 122.079 12.9294 122.509 12.9294H148.169C148.599 12.9294 148.948 12.5808 148.948 12.1507V12.0067C148.948 11.5766 148.599 11.228 148.169 11.228Z" fill="#DBDBDB"/>
<path d="M154.729 12.9295C155.292 12.9295 155.749 12.4728 155.749 11.9094C155.749 11.3461 155.292 10.8894 154.729 10.8894C154.166 10.8894 153.709 11.3461 153.709 11.9094C153.709 12.4728 154.166 12.9295 154.729 12.9295Z" fill="#DBDBDB"/>
<path d="M218.185 205.039C209.398 207.071 203.367 201.34 201.335 192.557L181.145 117.588C180.18 113.353 180.93 108.907 183.231 105.223C185.533 101.538 189.198 98.9143 193.428 97.9234C197.664 96.9584 202.109 97.7085 205.793 100.01C209.478 102.311 212.102 105.977 213.093 110.207L229.569 187.099C231.601 195.897 226.968 203.007 218.185 205.039Z" fill="url(#paint3_linear)"/>
<path d="M210.827 112.046C209.114 104.632 201.715 100.01 194.301 101.723C186.887 103.436 182.265 110.835 183.978 118.249L202.544 198.603C204.257 206.018 211.656 210.639 219.071 208.926C226.485 207.213 231.106 199.814 229.393 192.4L210.827 112.046Z" fill="#F6B9AD"/>
<path d="M228.763 267.136H113.523V294H228.763V267.136Z" fill="url(#paint4_linear)"/>
<path d="M225.648 270.251H116.638V291.275H225.648V270.251Z" fill="#FF8976"/>
<path d="M160.877 71.0056L151.946 64.2819L155.839 59.2206L149.341 54.1205L145.28 59.2674L136.096 52.3568C135.746 52.0943 135.321 51.9524 134.883 51.9524C134.446 51.9524 134.02 52.0943 133.671 52.3568L109.326 70.48C108.404 71.2586 107.539 72.1502 107.531 74.1902H107.504L107.442 102.113V103.355C107.441 103.755 107.519 104.151 107.671 104.52C107.823 104.89 108.046 105.226 108.328 105.51C108.61 105.793 108.945 106.018 109.314 106.172C109.683 106.326 110.079 106.406 110.479 106.407H111.678L134.761 106.458L159.047 106.512C159.447 106.513 159.843 106.435 160.213 106.283C160.582 106.131 160.918 105.908 161.202 105.626C161.485 105.344 161.71 105.009 161.864 104.64C162.018 104.271 162.098 103.875 162.099 103.475L162.165 74.3615H162.216C162.216 72.3176 161.799 71.7842 160.877 71.0056Z" fill="url(#paint5_linear)"/>
<path d="M159.818 74.7856C159.818 72.9246 159.428 72.4497 158.595 71.7294L135.987 54.7275C135.668 54.4878 135.279 54.3582 134.879 54.3582C134.48 54.3582 134.091 54.4878 133.772 54.7275L111.561 71.2661C111.027 71.6478 110.597 72.1576 110.311 72.7488C110.025 73.34 109.893 73.9936 109.926 74.6494H109.902L109.844 100.127V101.26C109.843 101.996 110.134 102.703 110.654 103.225C111.174 103.747 111.879 104.041 112.616 104.044H113.71L134.772 104.09L156.929 104.141C157.665 104.142 158.372 103.851 158.894 103.331C159.416 102.811 159.71 102.105 159.713 101.369L159.771 74.8051L159.818 74.7856Z" fill="url(#paint6_linear)"/>
<path d="M110.311 74.7515L159.299 74.8626L159.238 101.816C159.237 102.029 159.195 102.241 159.113 102.438C159.03 102.635 158.91 102.815 158.759 102.965C158.607 103.116 158.428 103.236 158.23 103.317C158.032 103.398 157.821 103.44 157.607 103.439L112.056 103.336C111.58 103.335 111.124 103.145 110.788 102.807C110.452 102.47 110.264 102.013 110.265 101.537L110.326 74.7515L110.311 74.7515Z" fill="#2651EB"/>
<path opacity="0.2" d="M110.311 74.7515L159.299 74.8626L159.238 101.816C159.237 102.029 159.195 102.241 159.113 102.438C159.03 102.635 158.91 102.815 158.759 102.965C158.607 103.116 158.428 103.236 158.23 103.317C158.032 103.398 157.821 103.44 157.607 103.439L112.056 103.336C111.58 103.335 111.124 103.145 110.788 102.807C110.452 102.47 110.264 102.013 110.265 101.537L110.326 74.7515L110.311 74.7515Z" fill="white"/>
<path d="M110.315 74.7429L110.261 99.5002C110.259 99.9997 110.357 100.495 110.547 100.956C110.737 101.418 111.017 101.838 111.369 102.192C111.722 102.546 112.14 102.827 112.601 103.019C113.063 103.211 113.557 103.311 114.056 103.312L155.438 103.405" fill="#F5F5F5"/>
<path d="M159.308 74.8521L159.253 99.6249C159.252 100.124 159.153 100.619 158.961 101.08C158.768 101.541 158.487 101.96 158.133 102.312C157.78 102.665 157.36 102.944 156.898 103.134C156.436 103.324 155.941 103.422 155.442 103.421L114.06 103.327" fill="white"/>
<path d="M133.768 55.3738L111.966 71.453C111.442 71.8213 111.02 72.316 110.739 72.8912C110.458 73.4664 110.327 74.1033 110.358 74.7428L159.37 74.8985C159.37 73.0882 158.98 72.6132 158.171 71.928L135.96 55.3816C135.644 55.1432 135.26 55.0136 134.865 55.0122C134.47 55.0108 134.085 55.1377 133.768 55.3738Z" fill="#2651EB"/>
<path opacity="0.2" d="M133.768 55.3738L111.966 71.453C111.442 71.8213 111.02 72.316 110.739 72.8912C110.458 73.4664 110.327 74.1033 110.358 74.7428L159.37 74.8985C159.37 73.0882 158.98 72.6132 158.171 71.928L135.96 55.3816C135.644 55.1432 135.26 55.0136 134.865 55.0122C134.47 55.0108 134.085 55.1377 133.768 55.3738Z" fill="black"/>
<path d="M154.001 60.9686L148.072 56.3201L133.741 74.4705L126.04 68.4982L121.216 74.6301L132.425 83.1914L135.204 85.4222L154.001 60.9686Z" fill="url(#paint7_linear)"/>
<path d="M153.565 60.8557L148.193 56.7366L133.955 75.3036L126.048 69.2418L121.925 74.6145L132.518 82.728L135.236 84.7642L153.565 60.8557Z" fill="white"/>
<path d="M107.819 120.617C105.732 123.91 102.427 126.242 98.6262 127.106C94.825 127.97 90.8365 127.294 87.5317 125.227L50.7406 101.272C47.4482 99.1846 45.1155 95.8795 44.2518 92.0783C43.3881 88.2771 44.0637 84.2885 46.131 80.9838C48.218 77.6914 51.523 75.3586 55.3242 74.495C59.1254 73.6313 63.1139 74.3069 66.4186 76.3741L103.21 100.329C106.502 102.416 108.835 105.721 109.699 109.523C110.562 113.324 109.887 117.312 107.819 120.617Z" fill="url(#paint8_linear)"/>
<path d="M105.865 119.356C103.911 122.439 100.816 124.624 97.256 125.433C93.6962 126.242 89.9608 125.61 86.866 123.674L52.4069 101.237C49.3233 99.2825 47.1384 96.1875 46.3294 92.6276C45.5204 89.0677 46.1531 85.3324 48.0893 82.2375C50.0434 79.1539 53.1384 76.969 56.6983 76.16C60.2581 75.351 63.9934 75.9837 67.0883 77.9199L101.547 100.357C104.631 102.311 106.816 105.406 107.625 108.966C108.434 112.526 107.801 116.261 105.865 119.356Z" fill="#F6B9AD"/>
<path d="M100.313 160.181C98.2367 163.459 94.947 165.781 91.1631 166.641C87.3792 167.501 83.4088 166.829 80.1192 164.771L51.0833 145.986C47.8054 143.909 45.4827 140.619 44.6226 136.835C43.7626 133.052 44.4351 129.081 46.4932 125.791C48.5699 122.513 51.8596 120.191 55.6435 119.331C59.4274 118.471 63.3979 119.143 66.6875 121.201L95.7194 139.99C98.9969 142.066 101.32 145.355 102.18 149.138C103.041 152.921 102.37 156.891 100.313 160.181Z" fill="url(#paint9_linear)"/>
<path d="M93.0253 199.946C90.9301 203.254 87.6107 205.599 83.7924 206.467C79.9742 207.335 75.9676 206.656 72.648 204.579L54.6652 191.459C51.3572 189.364 49.013 186.044 48.1449 182.226C47.2768 178.408 47.9553 174.401 50.0322 171.082C52.1299 167.776 55.4504 165.435 59.2685 164.57C63.0865 163.705 67.0918 164.386 70.4094 166.464L88.3923 179.581C91.6971 181.676 94.0389 184.993 94.9069 188.809C95.7749 192.624 95.0985 196.628 93.0253 199.946Z" fill="url(#paint10_linear)"/>
<path d="M91.573 198.969C89.6189 202.053 86.5239 204.238 82.964 205.047C79.4042 205.856 75.6689 205.223 72.574 203.287L55.8058 191.054C52.7222 189.1 50.5373 186.005 49.7284 182.445C48.9194 178.885 49.552 175.15 51.4882 172.055C53.4423 168.972 56.5373 166.787 60.0972 165.978C63.657 165.169 67.3924 165.801 70.4872 167.737L87.2554 179.97C90.339 181.924 92.5239 185.019 93.3329 188.579C94.1419 192.139 93.5092 195.874 91.573 198.969Z" fill="#F6B9AD"/>
<path d="M174.877 125.974H95.4546V149.723H174.877V125.974Z" fill="url(#paint11_linear)"/>
<path d="M172.152 128.31H98.1799V145.441H172.152V128.31Z" fill="#69F0AE"/>
<path d="M309.602 83.5183L311 83.7363L310.782 83.53H310.899L310.716 83.4677L285.375 59.4346L279.223 69.1405L274.108 77.9938L276.479 78.3636L275.427 83.1601L309.602 83.5183Z" fill="url(#paint12_linear)"/>
<path d="M280.286 69.6467L275.614 77.7486L309.875 83.3277L287.808 67.9609L280.286 69.6467Z" fill="#2651EB"/>
<path opacity="0.2" d="M280.286 69.6467L275.614 77.7486L309.875 83.3277L287.808 67.9609L280.286 69.6467Z" fill="black"/>
<path d="M285.912 60.77L309.875 83.3276L280.286 69.6467L285.912 60.77Z" fill="#2651EB"/>
<path d="M276.876 82.5099L309.781 83.1367L279.064 72.2278L276.876 82.5099Z" fill="#2651EB"/>
<path d="M98.717 159.165C96.7629 162.248 93.6678 164.433 90.108 165.242C86.5482 166.051 82.8128 165.418 79.718 163.482L52.403 145.807C49.3194 143.853 47.1345 140.758 46.3255 137.198C45.5165 133.638 46.1492 129.902 48.0854 126.808C50.0364 123.721 53.13 121.532 56.6901 120.719C60.2501 119.906 63.9872 120.536 67.0844 122.47L94.3994 140.146C97.4883 142.1 99.677 145.199 100.486 148.763C101.295 152.328 100.659 156.068 98.717 159.165Z" fill="#F6B9AD"/>
</g>
<defs>
<linearGradient id="paint0_linear" x1="152.35" y1="279.641" x2="152.35" y2="167.037" gradientUnits="userSpaceOnUse">
<stop stop-color="#808080" stop-opacity="0.25"/>
<stop offset="0.54" stop-color="#808080" stop-opacity="0.12"/>
<stop offset="1" stop-color="#808080" stop-opacity="0.1"/>
</linearGradient>
<linearGradient id="paint1_linear" x1="30031.1" y1="17179.1" x2="30031.1" y2="8498.02" gradientUnits="userSpaceOnUse">
<stop stop-color="#808080" stop-opacity="0.25"/>
<stop offset="0.54" stop-color="#808080" stop-opacity="0.12"/>
<stop offset="1" stop-color="#808080" stop-opacity="0.1"/>
</linearGradient>
<linearGradient id="paint2_linear" x1="68472.1" y1="148239" x2="68472.1" y2="16382.4" gradientUnits="userSpaceOnUse">
<stop stop-color="#808080" stop-opacity="0.25"/>
<stop offset="0.54" stop-color="#808080" stop-opacity="0.12"/>
<stop offset="1" stop-color="#808080" stop-opacity="0.1"/>
</linearGradient>
<linearGradient id="paint3_linear" x1="35973.3" y1="64873.5" x2="35973.3" y2="34945.9" gradientUnits="userSpaceOnUse">
<stop stop-color="#808080" stop-opacity="0.25"/>
<stop offset="0.54" stop-color="#808080" stop-opacity="0.12"/>
<stop offset="1" stop-color="#808080" stop-opacity="0.1"/>
</linearGradient>
<linearGradient id="paint4_linear" x1="73552.5" y1="22470.4" x2="73552.5" y2="20616.8" gradientUnits="userSpaceOnUse">
<stop stop-color="#808080" stop-opacity="0.25"/>
<stop offset="0.54" stop-color="#808080" stop-opacity="0.12"/>
<stop offset="1" stop-color="#808080" stop-opacity="0.1"/>
</linearGradient>
<linearGradient id="paint5_linear" x1="134.827" y1="106.508" x2="134.827" y2="51.948" gradientUnits="userSpaceOnUse">
<stop stop-opacity="0.12"/>
<stop offset="0.55" stop-opacity="0.09"/>
<stop offset="1" stop-opacity="0.02"/>
</linearGradient>
<linearGradient id="paint6_linear" x1="27328" y1="16973.5" x2="27328" y2="10608.3" gradientUnits="userSpaceOnUse">
<stop stop-color="#808080" stop-opacity="0.25"/>
<stop offset="0.54" stop-color="#808080" stop-opacity="0.12"/>
<stop offset="1" stop-color="#808080" stop-opacity="0.1"/>
</linearGradient>
<linearGradient id="paint7_linear" x1="18100.6" y1="8565.25" x2="18105.6" y2="6387.54" gradientUnits="userSpaceOnUse">
<stop stop-opacity="0.12"/>
<stop offset="0.55" stop-opacity="0.09"/>
<stop offset="1" stop-opacity="0.02"/>
</linearGradient>
<linearGradient id="paint8_linear" x1="26254.6" y1="21404.5" x2="26254.6" y2="14094.7" gradientUnits="userSpaceOnUse">
<stop stop-color="#808080" stop-opacity="0.25"/>
<stop offset="0.54" stop-color="#808080" stop-opacity="0.12"/>
<stop offset="1" stop-color="#808080" stop-opacity="0.1"/>
</linearGradient>
<linearGradient id="paint9_linear" x1="22594.6" y1="24206.9" x2="22594.6" y2="18278.6" gradientUnits="userSpaceOnUse">
<stop stop-color="#808080" stop-opacity="0.25"/>
<stop offset="0.54" stop-color="#808080" stop-opacity="0.12"/>
<stop offset="1" stop-color="#808080" stop-opacity="0.1"/>
</linearGradient>
<linearGradient id="paint10_linear" x1="18196.1" y1="25900.5" x2="18196.1" y2="21231.1" gradientUnits="userSpaceOnUse">
<stop stop-color="#808080" stop-opacity="0.25"/>
<stop offset="0.54" stop-color="#808080" stop-opacity="0.12"/>
<stop offset="1" stop-color="#808080" stop-opacity="0.1"/>
</linearGradient>
<linearGradient id="paint11_linear" x1="27669.2" y1="9259.09" x2="27669.2" y2="7810.41" gradientUnits="userSpaceOnUse">
<stop stop-opacity="0.12"/>
<stop offset="0.55" stop-opacity="0.09"/>
<stop offset="1" stop-opacity="0.02"/>
</linearGradient>
<linearGradient id="paint12_linear" x1="25773.1" y1="25769.6" x2="26620.6" y2="24432.3" gradientUnits="userSpaceOnUse">
<stop stop-color="#808080" stop-opacity="0.25"/>
<stop offset="0.54" stop-color="#808080" stop-opacity="0.12"/>
<stop offset="1" stop-color="#808080" stop-opacity="0.1"/>
</linearGradient>
<clipPath id="clip0">
<rect width="311" height="294" fill="white"/>
</clipPath>
</defs>
</svg>
