<svg width="442" height="352" viewBox="0 0 442 352" fill="none" xmlns="http://www.w3.org/2000/svg">
<g clip-path="url(#clip0)">
<path d="M331.587 39.5458C339.447 39.5458 345.819 33.177 345.819 25.3208C345.819 17.4645 339.447 11.0957 331.587 11.0957C323.727 11.0957 317.355 17.4645 317.355 25.3208C317.355 33.177 323.727 39.5458 331.587 39.5458Z" fill="#2F2E41"/>
<path d="M321.53 34.0004C321.53 34.0004 319.471 59.9111 317.001 59.9111C314.531 59.9111 345.82 58.6917 345.82 58.6917C345.82 58.6917 332.646 41.6212 339.233 36.1342C345.82 30.6473 321.53 34.0004 321.53 34.0004Z" fill="#9F616A"/>
<path opacity="0.1" d="M321.53 34.0004C321.53 34.0004 319.471 59.9111 317.001 59.9111C314.531 59.9111 345.82 58.6917 345.82 58.6917C345.82 58.6917 332.646 41.6212 339.233 36.1342C345.82 30.6473 321.53 34.0004 321.53 34.0004Z" fill="black"/>
<path d="M263.96 331.937C235.33 331.937 207.585 322.014 185.453 303.86C163.321 285.705 148.171 260.442 142.586 232.375C137 204.307 141.324 175.172 154.82 149.934C168.316 124.696 190.15 104.916 216.602 93.9646C243.053 83.0132 272.485 81.5679 299.883 89.875C327.281 98.1821 350.949 115.728 366.856 139.522C382.762 163.316 389.922 191.887 387.116 220.367C384.31 248.846 371.711 275.472 351.466 295.708C340.001 307.23 326.364 316.364 311.344 322.583C296.323 328.802 280.218 331.981 263.96 331.937ZM263.96 85.8318C196.431 85.8318 141.491 140.745 141.491 208.243C141.491 275.741 196.431 330.655 263.96 330.655C331.49 330.655 386.429 275.741 386.429 208.243C386.429 140.745 331.49 85.8318 263.96 85.8318Z" fill="#3F3D56"/>
<path d="M358.496 90.6902L344.11 94.8046L364.204 93.8885C368.721 93.6431 373.16 95.136 376.61 98.0605C380.19 101.158 383.075 106.072 380.297 113.335C374.739 127.862 366.19 141.535 366.19 141.535L360.633 152.216C360.633 152.216 349.092 153.925 348.664 150.507C348.237 147.089 348.664 145.38 350.801 143.671C352.939 141.962 354.221 138.544 354.221 136.835C354.221 135.126 353.794 133.417 355.076 132.562C356.358 131.708 356.786 130.426 356.786 127.862C356.786 125.299 364.201 114.032 364.201 114.032C364.201 114.032 348.664 108.635 341.973 113.177C335.282 117.719 321.734 137.689 321.734 137.689C320.845 138.619 320.1 139.676 319.525 140.826C318.838 142.161 317.888 143.343 316.731 144.3C315.487 145.392 316.632 148.399 317.032 148.798C317.459 149.226 321.734 166.316 321.734 166.316C321.734 166.316 326.436 174.434 321.306 174.862C316.177 175.289 311.474 175.716 311.047 174.862C310.572 173.677 310 172.534 309.337 171.443C308.055 169.307 309.337 164.607 309.337 164.607C309.337 164.607 296.941 148.798 300.788 138.971C304.635 129.144 312.757 106.926 312.757 106.926L325.153 101.799L347.809 93.681L358.496 90.6902Z" fill="#2F2E41"/>
<path d="M272.148 44.5453L254.621 41.1272C254.621 41.1272 250.347 26.6002 245.217 28.3092C240.088 30.0183 248.637 44.5453 248.637 44.5453L273.002 55.6542L272.148 44.5453Z" fill="#A0616A"/>
<path d="M378.586 59.0725L386.281 68.8996C386.281 68.8996 397.395 68.4723 393.975 74.4541C390.555 80.4358 382.861 77.0177 382.434 75.7359C382.006 74.4541 369.61 63.3452 369.61 63.3452L378.586 59.0725Z" fill="#A0616A"/>
<path d="M338.553 46.0962L327.439 54.6415L320.6 44.3871L267.594 41.3962V58.9141C280.638 55.1494 292.645 53.9831 302.219 58.9141C314.335 75.041 317.001 92.5534 309.337 111.58L371.895 89.6773C353.146 82.6986 344.442 72.5815 347.102 58.9141L368.903 66.6049L382.155 56.7778C370.305 48.8076 352.669 43.8088 338.553 46.0962Z" fill="#2651EB"/>
<path d="M221 352C343.055 352 442 344.54 442 335.337C442 326.134 343.055 318.673 221 318.673C98.9451 318.673 0 326.134 0 335.337C0 344.54 98.9451 352 221 352Z" fill="#3F3D56"/>
<path opacity="0.1" d="M159.231 346.018C241.742 346.018 308.631 341.045 308.631 334.909C308.631 328.774 241.742 323.801 159.231 323.801C76.7202 323.801 9.83179 328.774 9.83179 334.909C9.83179 341.045 76.7202 346.018 159.231 346.018Z" fill="black"/>
<path d="M399.75 312.718C398.326 325.19 405.997 336.308 405.997 336.308C405.997 336.308 415.977 327.204 417.401 314.732C418.825 302.26 411.154 291.142 411.154 291.142C411.154 291.142 401.174 300.246 399.75 312.718Z" fill="#2F2E41"/>
<path d="M405.19 312.074C410.323 323.531 406.377 336.447 406.377 336.447C406.377 336.447 394.109 330.788 388.976 319.332C383.844 307.875 387.79 294.959 387.79 294.959C387.79 294.959 400.058 300.618 405.19 312.074Z" fill="#2651EB"/>
<path d="M267.405 334.679C293.86 334.679 315.305 313.244 315.305 286.802C315.305 260.36 293.86 238.924 267.405 238.924C240.951 238.924 219.505 260.36 219.505 286.802C219.505 313.244 240.951 334.679 267.405 334.679Z" fill="#F2F2F2"/>
<path d="M267.405 212.99L255.605 242.476L212.936 242.818L199.035 242.93L166.048 243.196L152.154 243.308L119.167 243.573L105.272 243.685L72.2847 243.956L58.3902 244.068L36.1234 244.245L31.8164 235.435L26.229 224.024L23.1433 217.708L21.3733 212.99L31.9639 179.464C32.9993 176.188 35.052 173.327 37.8242 171.296C40.5963 169.266 43.9438 168.171 47.3807 168.17H240.064C243.401 168.172 246.656 169.206 249.383 171.13C252.109 173.053 254.173 175.773 255.292 178.915L256.52 182.371L267.405 212.99Z" fill="#2651EB"/>
<path d="M267.405 212.99H21.3733V274.912H267.405V212.99Z" fill="#2651EB"/>
<path opacity="0.1" d="M267.405 212.99H21.3733V274.912H267.405V212.99Z" fill="black"/>
<path d="M271.034 127.935H263.776V135.189H271.034V127.935Z" fill="#3F3D56"/>
<path d="M290.629 283.174H283.372V290.428H290.629V283.174Z" fill="#3F3D56"/>
<path d="M222.86 133.082H65.3286V331.23H222.86V133.082Z" fill="#F2F2F2"/>
<path d="M144.389 147.235H98.3689V153.722H144.389V147.235Z" fill="#3F3D56"/>
<path d="M212.83 173.773H74.1787V176.721H212.83V173.773Z" fill="#E6E6E6"/>
<path d="M212.83 183.208H74.1787V186.157H212.83V183.208Z" fill="#E6E6E6"/>
<path d="M212.83 192.644H74.1787V195.593H212.83V192.644Z" fill="#E6E6E6"/>
<path d="M212.83 202.08H74.1787V205.028H212.83V202.08Z" fill="#E6E6E6"/>
<path d="M212.83 211.515H74.1787V214.464H212.83V211.515Z" fill="#E6E6E6"/>
<path d="M212.83 220.951H74.1787V223.9H212.83V220.951Z" fill="#E6E6E6"/>
<path d="M80.0786 159.029C78.0949 159.029 76.1557 158.442 74.5062 157.34C72.8568 156.238 71.5712 154.673 70.8121 152.841C70.0529 151.009 69.8543 148.993 70.2413 147.048C70.6283 145.104 71.5836 143.317 72.9863 141.915C74.3891 140.513 76.1762 139.558 78.1219 139.171C80.0675 138.785 82.0842 138.983 83.917 139.742C85.7498 140.501 87.3162 141.786 88.4183 143.434C89.5205 145.083 90.1087 147.021 90.1087 149.004C90.1057 151.662 89.0481 154.21 87.1677 156.09C85.2873 157.969 82.7379 159.027 80.0786 159.029ZM80.0786 140.158C78.3283 140.158 76.6172 140.677 75.1618 141.649C73.7064 142.621 72.5721 144.003 71.9023 145.619C71.2324 147.235 71.0572 149.014 71.3986 150.73C71.7401 152.446 72.583 154.022 73.8207 155.259C75.0584 156.496 76.6354 157.339 78.3521 157.68C80.0688 158.021 81.8483 157.846 83.4654 157.177C85.0826 156.507 86.4648 155.373 87.4372 153.919C88.4097 152.464 88.9287 150.754 88.9287 149.004C88.9261 146.659 87.9928 144.41 86.3337 142.752C84.6745 141.094 82.425 140.161 80.0786 140.158Z" fill="#2651EB"/>
<path d="M267.405 336.243H21.3733V212.99L53.2336 237.758L236.725 236.579L267.405 212.99V336.243Z" fill="#3F3D56"/>
<path d="M80.0787 307.641H34.0583V314.128H80.0787V307.641Z" fill="#F2F2F2"/>
<path d="M58.2092 295.46C57.1947 295.46 56.2029 295.159 55.3593 294.596C54.5158 294.032 53.8583 293.231 53.4701 292.295C53.0818 291.358 52.9802 290.327 53.1782 289.332C53.3761 288.338 53.8646 287.424 54.582 286.707C55.2994 285.99 56.2134 285.502 57.2085 285.304C58.2035 285.106 59.2349 285.208 60.1722 285.596C61.1095 285.984 61.9106 286.641 62.4743 287.484C63.0379 288.327 63.3388 289.318 63.3388 290.333C63.3372 291.692 62.7963 292.995 61.8346 293.956C60.873 294.917 59.5692 295.458 58.2092 295.46ZM58.2092 286.06C57.3637 286.06 56.5373 286.31 55.8343 286.78C55.1313 287.249 54.5835 287.917 54.2599 288.697C53.9364 289.478 53.8517 290.337 54.0167 291.166C54.1816 291.995 54.5887 292.756 55.1865 293.354C55.7844 293.951 56.546 294.358 57.3752 294.523C58.2044 294.688 59.0639 294.603 59.845 294.28C60.6261 293.957 61.2937 293.409 61.7634 292.706C62.2332 292.004 62.4839 291.178 62.4839 290.333C62.4826 289.2 62.0318 288.114 61.2304 287.313C60.4291 286.512 59.3425 286.061 58.2092 286.06Z" fill="white"/>
<path d="M359.35 150.08C359.35 150.08 361.915 159.907 362.77 160.334C363.625 160.762 373.029 168.88 366.617 170.161C360.205 171.443 355.503 171.016 354.221 169.734C352.938 168.452 353.366 167.171 351.229 166.743C349.091 166.316 345.244 165.034 345.672 162.043C346.099 159.053 348.236 150.935 349.519 150.08C350.801 149.225 359.35 150.08 359.35 150.08Z" fill="#2F2E41"/>
<path d="M322.161 171.871C322.161 171.871 326.008 174.861 323.871 180.416C321.733 185.97 318.741 191.952 318.741 191.952C318.741 191.952 315.321 202.634 309.764 200.925C307.507 200.23 306.378 198.337 305.834 196.334C305.441 194.82 305.376 193.24 305.644 191.699C305.912 190.159 306.506 188.693 307.386 187.4L310.619 182.552L314.039 173.58L322.161 171.871Z" fill="#2F2E41"/>
<path d="M312.779 213.236C320.442 213.236 329.922 210.699 339.161 201.528C361.778 179.076 383.266 176.824 383.48 176.804L383.4 175.953C383.183 175.973 361.391 178.256 338.558 200.922C326.826 212.568 314.716 213.282 306.624 211.829C301.278 210.858 296.187 208.808 291.663 205.802L291.158 206.491C295.778 209.566 300.978 211.667 306.439 212.663C308.531 213.043 310.653 213.235 312.779 213.236Z" fill="#2F2E41"/>
<path d="M371.961 194.729C374.794 194.729 377.09 192.434 377.09 189.602C377.09 186.77 374.794 184.475 371.961 184.475C369.128 184.475 366.831 186.77 366.831 189.602C366.831 192.434 369.128 194.729 371.961 194.729Z" fill="#2F2E41"/>
<path d="M335.626 218.656C338.459 218.656 340.756 216.361 340.756 213.529C340.756 210.697 338.459 208.402 335.626 208.402C332.793 208.402 330.497 210.697 330.497 213.529C330.497 216.361 332.793 218.656 335.626 218.656Z" fill="#2F2E41"/>
<path d="M330.434 43.6287C336.099 43.6287 340.692 39.0385 340.692 33.3761C340.692 27.7138 336.099 23.1235 330.434 23.1235C324.769 23.1235 320.177 27.7138 320.177 33.3761C320.177 39.0385 324.769 43.6287 330.434 43.6287Z" fill="#A0616A"/>
<path d="M339.015 0C337.94 1.53521 336.346 2.63052 334.527 3.08435C331.388 3.92447 334.501 8.63912 334.501 8.63912C334.501 8.63912 333.369 6.9247 335.002 5.10909C336.635 3.29347 339.262 2.05218 339.015 0Z" fill="#2F2E41"/>
<path d="M333.945 13.7344C336.135 13.7344 337.911 11.9595 337.911 9.77002C337.911 7.58057 336.135 5.80566 333.945 5.80566C331.755 5.80566 329.979 7.58057 329.979 9.77002C329.979 11.9595 331.755 13.7344 333.945 13.7344Z" fill="#2F2E41"/>
<path d="M339.009 13.0929C335.775 11.8705 330.392 11.2507 327.622 11.6743L328.002 8.90186C330.665 10.2775 336.024 10.9239 339.389 10.3204L339.009 13.0929Z" fill="#3F3D56"/>
<path d="M331.897 16.2217C331.897 16.2217 327.845 22.9588 318.422 25.4808C308.999 28.0028 318.345 42.1561 318.345 42.1561C318.345 42.1561 314.947 37.0095 319.849 31.5591C324.751 26.1086 332.639 22.3823 331.897 16.2217Z" fill="#2F2E41"/>
<path d="M332.219 15.8123C332.219 15.8123 336.112 25.066 340.385 25.9408C344.659 26.8157 344.335 41.4375 337.652 43.6301C337.652 43.6301 342.525 35.0582 338.359 29.3094C334.194 23.5606 331.562 19.0161 332.219 15.8123Z" fill="#2F2E41"/>
</g>
<defs>
<clipPath id="clip0">
<rect width="442" height="352" fill="white"/>
</clipPath>
</defs>
</svg>
